<?xml version="1.0" standalone="no"?>
<!DOCTYPE svg PUBLIC "-//W3C//DTD SVG 1.1//EN" "http://www.w3.org/Graphics/SVG/1.1/DTD/svg11.dtd">
<svg
  t="1587961309998"
  class="icon"
  viewBox="0 0 1024 1024"
  version="1.1"
  xmlns="http://www.w3.org/2000/svg"
  p-id="6783"
  xmlns:xlink="http://www.w3.org/1999/xlink"
  width="200"
  height="200"
>
  <defs>
    <style type="text/css">
      path { fill: #d4237a; }
      @media (prefers-color-scheme: dark) {
        path { fill: #ffa7c4; }
      }
    </style>
  </defs>
  <path
    d="M810.057143 171.282286c-17.133714 0-30.848 7.296-48.841143 16.274285L210.505143 455.021714C174.08 472.996571 162.505143 489.289143 162.505143 512s11.574857 39.424 48 57.417143l550.710857 267.008c18.432 8.996571 32.146286 16.274286 49.28 16.274286 31.725714 0 51.017143-23.990857 51.017143-61.257143V232.557714c0-37.302857-19.730286-61.293714-51.437714-61.293714z m-21.833143 81.426285c2.56 0 4.278857 2.139429 4.278857 5.138286l0.420572 508.288c0 3.437714-1.700571 5.156571-4.278858 5.156572-1.718857 0-3.437714-0.859429-5.138285-1.718858L258.505143 516.717714c-2.139429-0.859429-3.858286-2.56-3.858286-4.717714 0-2.139429 1.718857-3.84 3.84-4.717714l524.580572-252.434286a8.905143 8.905143 0 0 1 5.156571-2.139429z"
    p-id="6784"
    fill="#d4237a"
  ></path>
</svg>

